<svg  aria-hidden="true"
            focusable="false"
            data-prefix="fad"
            data-icon="cat"
            role="img"
            xmlns="http://www.w3.org/2000/svg"
            viewBox="0 0 512 512"
            class="svg-inline--fa fa-cat fa-w-16 fa-9x"><g class="fa-group"><path fill="currentColor" class="fa-secondary" d="M50.138 0H545.24c15.355 0 27.922 12.567 27.922 27.922v78.556h40.56c2.232 0 4.063 1.819 4.063 4.05v86.4a2.092 2.092 0 0 1-2.09 2.078H573.16v74.73h40.56c2.232 0 4.063 1.819 4.063 4.05v86.4a2.092 2.092 0 0 1-2.09 2.078H573.16v74.718h40.56a4.07 4.07 0 0 1 4.063 4.063v86.399a2.092 2.092 0 0 1-2.09 2.078H573.16v78.557c0 15.354-12.567 27.921-27.921 27.921H50.139c-15.355 0-27.922-12.567-27.922-27.921V27.922C22.217 12.567 34.784 0 50.139 0zm46.395 518.806v-64.288c34.394-15.307 139.596-43.642 144.628-85.678 1.063-9.58-21.308-46.501-26.457-63.887-6.437-10.3-9.945-13.973-9.792-26.705.095-7.122.26-14.138 1.276-21.036 1.275-8.764 1.04-9.035 5.622-16.134 4.795-7.335 2.717-34.146 2.717-44.304 0-100.737 176.565-100.797 176.565 0 0 12.792-2.941 36.202 3.98 46.182 3.413 4.83 2.764 5.48 3.91 11.457 1.452 7.783 1.618 15.768 1.724 23.835.13 12.732-3.307 16.405-9.792 26.705-6.248 18.236-30.07 52.737-28.004 63.107 7.571 38.434 105.178 64.23 135.935 77.895l-.012 72.851h-402.3z"/><path fill="currentColor" class="fa-primary" d="M50.138 0H545.24c15.355 0 27.922 12.567 27.922 27.922v78.556h40.56c2.232 0 4.063 1.819 4.063 4.05v86.4a2.092 2.092 0 0 1-2.09 2.078H573.16v74.73h40.56c2.232 0 4.063 1.819 4.063 4.05v86.4a2.092 2.092 0 0 1-2.09 2.078H573.16v74.718h40.56a4.07 4.07 0 0 1 4.063 4.063v86.399a2.092 2.092 0 0 1-2.09 2.078H573.16v78.557c0 15.354-12.567 27.921-27.921 27.921H50.139c-15.355 0-27.922-12.567-27.922-27.921V27.922C22.217 12.567 34.784 0 50.139 0zm46.395 518.806v-64.288c34.394-15.307 139.596-43.642 144.628-85.678 1.063-9.58-21.308-46.501-26.457-63.887-6.437-10.3-9.945-13.973-9.792-26.705.095-7.122.26-14.138 1.276-21.036 1.275-8.764 1.04-9.035 5.622-16.134 4.795-7.335 2.717-34.146 2.717-44.304 0-100.737 176.565-100.797 176.565 0 0 12.792-2.941 36.202 3.98 46.182 3.413 4.83 2.764 5.48 3.91 11.457 1.452 7.783 1.618 15.768 1.724 23.835.13 12.732-3.307 16.405-9.792 26.705-6.248 18.236-30.07 52.737-28.004 63.107 7.571 38.434 105.178 64.23 135.935 77.895l-.012 72.851h-402.3z"/></g></svg>