<svg aria-hidden="true"
            focusable="false"
            data-prefix="fad"
            data-icon="alien-monster"
            role="img"
            xmlns="http://www.w3.org/2000/svg"
            viewBox="0 0 576 512"
            class="svg-inline--fa fa-alien-monster fa-w-18 fa-9x"><g class="fa-group"><path fill="currentColor" class="fa-secondary" d="M167210 1609c2476-2278 6331-2119 8609 357s2118 6331-357 8609c-10829 9997-18844 22100-23613 36626-4385 13355-6068 28810-4724 46614 2238-183 4493-465 6764-850 4078-692 8173-1730 12286-3138l4 11c207-70 421-130 640-178 13652-3057 25913-3903 36961-2826 11271 1098 21267 4183 30177 8957 28817 15439 42801 38226 46876 63674 4911 30669-4875 64988-20325 94535-7277 13917-19225 32738-33061 48113-10619 11800-22469 21705-34472 26215-9671 3634-19030 4644-28107 3734-7959-797-15621-3060-23037-6309-9735 4887-19909 7798-30692 7568-11846-253-24185-4260-37144-13544l10-14c-158-114-313-236-463-367-12881-11267-23441-23060-32475-35021-8979-11887-16480-23985-23269-35912C4001 224225-1349 198085 287 174025c1378-20269 7720-39116 18159-54191 10604-15315 25409-26740 43538-31882 15180-4307 32600-4172 51707 1829l-4 13c4679 1422 9350 2515 14009 3239 2407 374 4813 650 7217 823-795-11247-462-21675 928-31335-15664 8875-30129 12183-43526 10541-32838-4024-48727-31304-61591-58073l17583-1831c46120-7044 73643 8782 89511 38942 706-2967 1520-5855 2443-8665 5450-16599 14598-30419 26952-41824zM45195 222235c-1067-3187 652-6636 3839-7702 3187-1067 6636 652 7702 3839 3435 10288 8565 19515 14985 27930 6508 8528 14339 16230 23082 23359 2607 2120 3003 5954 883 8561s-5954 3003-8561 882c-9471-7723-17978-16096-25085-25411-7194-9428-12958-19815-16845-31459zm96962-116012c-350 33-697 35-1036 9-5101 17-10197-390-15287-1181-5250-816-10491-2042-15721-3634l-43-14-4 14c-16725-5253-31800-5420-44792-1734-15266 4330-27788 14032-36813 27066-9190 13272-14783 29996-16013 48087-1484 21826 3386 45568 15938 67618 6525 11463 13744 23103 22410 34576 8526 11288 18428 22374 30405 32898 10791 7707 20787 11031 30176 11232 9465 202 18559-2729 27372-7520 1771-965 3810-958 5505-159l4-7c7120 3377 14389 5734 21802 6476 7288 730 14819-86 22623-3019 9961-3743 20245-12462 29702-22972 13144-14607 24463-32427 31343-45585 14384-27508 23540-59175 19085-86999-3498-21851-15599-41467-40580-54851-7522-4030-16000-6638-25599-7574-9703-946-20564-199-32751 2490-4646 1579-9311 2752-13993 3546-4525 768-9106 1172-13734 1239z" fill-rule="nonzero"/>
            <path fill="currentColor" class="fa-primary" d="M167210 1609c2476-2278 6331-2119 8609 357s2118 6331-357 8609c-10829 9997-18844 22100-23613 36626-4385 13355-6068 28810-4724 46614 2238-183 4493-465 6764-850 4078-692 8173-1730 12286-3138l4 11c207-70 421-130 640-178 13652-3057 25913-3903 36961-2826 11271 1098 21267 4183 30177 8957 28817 15439 42801 38226 46876 63674 4911 30669-4875 64988-20325 94535-7277 13917-19225 32738-33061 48113-10619 11800-22469 21705-34472 26215-9671 3634-19030 4644-28107 3734-7959-797-15621-3060-23037-6309-9735 4887-19909 7798-30692 7568-11846-253-24185-4260-37144-13544l10-14c-158-114-313-236-463-367-12881-11267-23441-23060-32475-35021-8979-11887-16480-23985-23269-35912C4001 224225-1349 198085 287 174025c1378-20269 7720-39116 18159-54191 10604-15315 25409-26740 43538-31882 15180-4307 32600-4172 51707 1829l-4 13c4679 1422 9350 2515 14009 3239 2407 374 4813 650 7217 823-795-11247-462-21675 928-31335-15664 8875-30129 12183-43526 10541-32838-4024-48727-31304-61591-58073l17583-1831c46120-7044 73643 8782 89511 38942 706-2967 1520-5855 2443-8665 5450-16599 14598-30419 26952-41824zM45195 222235c-1067-3187 652-6636 3839-7702 3187-1067 6636 652 7702 3839 3435 10288 8565 19515 14985 27930 6508 8528 14339 16230 23082 23359 2607 2120 3003 5954 883 8561s-5954 3003-8561 882c-9471-7723-17978-16096-25085-25411-7194-9428-12958-19815-16845-31459zm96962-116012c-350 33-697 35-1036 9-5101 17-10197-390-15287-1181-5250-816-10491-2042-15721-3634l-43-14-4 14c-16725-5253-31800-5420-44792-1734-15266 4330-27788 14032-36813 27066-9190 13272-14783 29996-16013 48087-1484 21826 3386 45568 15938 67618 6525 11463 13744 23103 22410 34576 8526 11288 18428 22374 30405 32898 10791 7707 20787 11031 30176 11232 9465 202 18559-2729 27372-7520 1771-965 3810-958 5505-159l4-7c7120 3377 14389 5734 21802 6476 7288 730 14819-86 22623-3019 9961-3743 20245-12462 29702-22972 13144-14607 24463-32427 31343-45585 14384-27508 23540-59175 19085-86999-3498-21851-15599-41467-40580-54851-7522-4030-16000-6638-25599-7574-9703-946-20564-199-32751 2490-4646 1579-9311 2752-13993 3546-4525 768-9106 1172-13734 1239z" fill-rule="nonzero"/>
            </g></svg>