<svg  aria-hidden="true"
            focusable="false"
            data-prefix="fad"
            data-icon="space-shuttle"
            role="img"
            xmlns="http://www.w3.org/2000/svg"
            viewBox="0 0 640 512"
            width="64" height="64"
            class="svg-inline--fa fa-space-shuttle fa-w-20 fa-5x">  <g class="fa-group"><path fill="currentColor" class="fa-secondary" d="M769.63 18.13h320.55c31.95 0 58.1 26.15 58.1 58.1v61.87l185.05-111.2v350.98l-185.05-99.86v80.47c0 31.94-26.15 58.05-58.1 58.05H769.63c-31.96 0-58.11-26.11-58.11-58.05V76.23c0-31.94 26.15-58.1 58.11-58.1zM335.56 498.31c40.94 73.85 88.11 144.79 149.53 209.5 61.43 65.07 137.84 124.3 236.92 174.76 7.31 3.65 14.26 3.65 20.47 1.09 9.51-3.66 19.01-11.33 28.52-20.84 7.31-7.31 16.45-19.01 25.96-31.81 38.03-50.09 85.19-112.24 151.73-81.17 1.46.73 2.56 1.46 4.02 2.19l221.92 127.6c.73.36 1.46 1.1 2.19 1.46 29.25 20.11 41.31 51.18 41.68 86.28 0 35.83-13.16 76.05-32.55 110.05-25.59 44.96-63.25 74.58-106.76 94.32-41.31 19.01-87.38 29.25-131.62 35.83-69.46 10.24-134.54 3.65-201.08-16.81-65.08-20.11-130.52-53.38-202.18-97.62l-5.12-3.29c-32.91-20.48-68.37-42.41-103.1-68.37-127.6-96.16-257.39-235.09-341.85-387.91C23.31 505.24-15.44 366.67 5.76 234.69c11.7-72.39 42.78-138.2 96.89-181.71C149.81 14.96 213.43-5.88 295.7 1.43c9.5.72 17.91 6.22 22.3 14.26l142.22 240.57c20.85 27.06 23.4 53.74 12.07 80.43-9.51 21.94-28.52 42.04-54.48 61.06-7.68 6.58-16.82 13.16-26.33 20.11-31.81 23.04-68 49.72-55.57 81.16l-.36-.73z"/>
            <path fill="currentColor" class="fa-primary" d="M769.63 18.13h320.55c31.95 0 58.1 26.15 58.1 58.1v61.87l185.05-111.2v350.98l-185.05-99.86v80.47c0 31.94-26.15 58.05-58.1 58.05H769.63c-31.96 0-58.11-26.11-58.11-58.05V76.23c0-31.94 26.15-58.1 58.11-58.1zM335.56 498.31c40.94 73.85 88.11 144.79 149.53 209.5 61.43 65.07 137.84 124.3 236.92 174.76 7.31 3.65 14.26 3.65 20.47 1.09 9.51-3.66 19.01-11.33 28.52-20.84 7.31-7.31 16.45-19.01 25.96-31.81 38.03-50.09 85.19-112.24 151.73-81.17 1.46.73 2.56 1.46 4.02 2.19l221.92 127.6c.73.36 1.46 1.1 2.19 1.46 29.25 20.11 41.31 51.18 41.68 86.28 0 35.83-13.16 76.05-32.55 110.05-25.59 44.96-63.25 74.58-106.76 94.32-41.31 19.01-87.38 29.25-131.62 35.83-69.46 10.24-134.54 3.65-201.08-16.81-65.08-20.11-130.52-53.38-202.18-97.62l-5.12-3.29c-32.91-20.48-68.37-42.41-103.1-68.37-127.6-96.16-257.39-235.09-341.85-387.91C23.31 505.24-15.44 366.67 5.76 234.69c11.7-72.39 42.78-138.2 96.89-181.71C149.81 14.96 213.43-5.88 295.7 1.43c9.5.72 17.91 6.22 22.3 14.26l142.22 240.57c20.85 27.06 23.4 53.74 12.07 80.43-9.51 21.94-28.52 42.04-54.48 61.06-7.68 6.58-16.82 13.16-26.33 20.11-31.81 23.04-68 49.72-55.57 81.16l-.36-.73z"/></g></svg>